<svg width="270" height="237" viewBox="0 0 270 237" fill="none" xmlns="http://www.w3.org/2000/svg">
<g id="logo">
<g id="tophat">
<path id="Ellipse 6" d="M257 118.5C257 104.252 253.806 90.1427 247.599 76.9788C241.393 63.815 232.296 51.8541 220.828 41.7789C209.36 31.7038 195.745 23.7117 180.761 18.2591C165.778 12.8064 149.718 10 133.5 10C117.282 10 101.222 12.8064 86.2386 18.2591C71.2549 23.7117 57.6403 31.7038 46.1723 41.7789C34.7043 51.8541 25.6073 63.815 19.4009 76.9789C13.1944 90.1427 10 104.252 10 118.5L133.5 118.5H257Z" fill="url(#paint0_linear_74_951)"/>
</g>
<g id="downstairs">
<rect id="Rectangle 9" x="42" y="132" width="189" height="14" fill="url(#paint1_linear_74_951)"/>
<rect id="Rectangle 10" x="66" y="156" width="141" height="5" fill="url(#paint2_linear_74_951)"/>
<rect id="Rectangle 11" x="97.5" y="171" width="78" height="1" fill="url(#paint3_linear_74_951)"/>
</g>
</g>
<defs>
<linearGradient id="paint0_linear_74_951" x1="133.5" y1="10" x2="133.5" y2="227" gradientUnits="userSpaceOnUse">
<stop stop-color="#C33764"/>
<stop offset="0.481" stop-color="#1D2671"/>
</linearGradient>
<linearGradient id="paint1_linear_74_951" x1="136.5" y1="132" x2="136.5" y2="146" gradientUnits="userSpaceOnUse">
<stop stop-color="#C33764"/>
<stop offset="0.481" stop-color="#1D2671"/>
</linearGradient>
<linearGradient id="paint2_linear_74_951" x1="136.5" y1="156" x2="136.5" y2="161" gradientUnits="userSpaceOnUse">
<stop stop-color="#C33764"/>
<stop offset="0.481" stop-color="#1D2671"/>
</linearGradient>
<linearGradient id="paint3_linear_74_951" x1="136.5" y1="171" x2="136.5" y2="172" gradientUnits="userSpaceOnUse">
<stop stop-color="#C33764"/>
<stop offset="0.481" stop-color="#1D2671"/>
</linearGradient>
</defs>
</svg>
