<svg width="245" height="314" viewBox="0 0 245 314" fill="none" xmlns="http://www.w3.org/2000/svg">
<path d="M218.281 72.704C218.04 72.5 217.721 72.416 217.412 72.472L215.528 72.814C215.512 72.817 213.998 73.083 211.762 73.083C193.951 73.083 190.551 58.861 190.11 50.383L190.032 48.882C190.002 48.321 189.539 47.881 188.977 47.881H56.0238C55.4618 47.881 54.9988 48.321 54.9698 48.882L54.8918 50.383C54.4498 58.86 51.0498 73.081 33.2388 73.083C31.0038 73.083 29.4918 72.817 29.4798 72.815L27.5898 72.466C27.2798 72.408 26.9598 72.493 26.7188 72.696C26.4778 72.899 26.3398 73.199 26.3428 73.515L26.3618 75.476C26.3808 77.367 26.8378 122.3 27.9958 166.893C30.4178 260.156 33.4768 264.072 34.7838 265.743C41.1678 273.914 100.712 310.48 120.126 313.575C120.305 313.716 120.532 313.8 120.777 313.8H122.641C122.643 313.8 122.646 313.8 122.648 313.8L124.232 313.79C124.467 313.788 124.684 313.709 124.859 313.579C144.257 310.5 203.831 273.917 210.218 265.745C211.524 264.074 214.584 260.162 217.007 166.894C218.188 121.341 218.637 75.875 218.641 75.436L218.657 73.522C218.66 73.205 218.521 72.906 218.281 72.704Z" fill="#F8485E"/>
<path d="M211.325 81.226C211.329 80.892 211.332 80.559 211.336 80.226C211 80.217 210.667 80.203 210.336 80.186" stroke="#512D6D" stroke-width="1.4" stroke-linecap="round" stroke-linejoin="round"/>
<path d="M206.401 79.761C194.653 77.81 186.632 69.998 183.758 57.776" stroke="#512D6D" stroke-width="1.4" stroke-linecap="round" stroke-linejoin="round" stroke-dasharray="1.98 3.96"/>
<path d="M183.352 55.835C183.292 55.509 183.235 55.18 183.182 54.849H182.182" stroke="#512D6D" stroke-width="1.4" stroke-linecap="round" stroke-linejoin="round"/>
<path d="M178.136 54.849H64.8418" stroke="#512D6D" stroke-width="1.4" stroke-linecap="round" stroke-linejoin="round" stroke-dasharray="2.02 4.05"/>
<path d="M62.8194 54.849H61.8194C61.7664 55.181 61.7094 55.509 61.6494 55.835" stroke="#512D6D" stroke-width="1.4" stroke-linecap="round" stroke-linejoin="round"/>
<path d="M60.7416 59.688C57.3206 71.454 48.8116 78.72 36.6426 80.028" stroke="#512D6D" stroke-width="1.4" stroke-linecap="round" stroke-linejoin="round" stroke-dasharray="1.98 3.96"/>
<path d="M34.666 80.186C34.335 80.204 34.002 80.217 33.666 80.226C33.67 80.558 33.673 80.892 33.677 81.226" stroke="#512D6D" stroke-width="1.4" stroke-linecap="round" stroke-linejoin="round"/>
<path d="M33.7227 85.218C34.5097 152.377 36.9327 251.121 40.6697 261.791C47.5407 269.418 108.373 306.45 122.501 306.824C136.628 306.449 197.461 269.416 204.332 261.791C208.106 251.016 210.54 150.409 211.302 83.229" stroke="#512D6D" stroke-width="1.4" stroke-linecap="round" stroke-linejoin="round" stroke-dasharray="2 4"/>
<path d="M46.5663 257.449C50.9973 261.118 64.2013 270.235 82.2323 280.586C107.247 294.946 119.397 299.042 122.501 299.235C125.604 299.041 137.754 294.946 162.769 280.586C180.8 270.234 194.004 261.118 198.435 257.449C201.472 240.17 203.863 172.249 204.723 87.016C193.281 84.972 182.324 77.668 178.081 62.432H66.9194C62.6764 77.665 51.7193 84.972 40.2773 87.016C41.1383 172.248 43.5293 240.17 46.5663 257.449Z" fill="#512D6D"/>
<path d="M46.5663 257.449C50.9973 261.118 64.2013 270.235 82.2323 280.586C107.247 294.946 119.397 299.042 122.501 299.235C125.604 299.041 137.754 294.946 162.769 280.586C180.8 270.234 194.004 261.118 198.435 257.449C201.472 240.17 203.863 172.249 204.723 87.016C193.281 84.972 182.324 77.668 178.081 62.432H66.9194C62.6764 77.665 51.7193 84.972 40.2773 87.016C41.1383 172.248 43.5293 240.17 46.5663 257.449Z" stroke="white" stroke-width="3" stroke-miterlimit="10" stroke-linecap="round" stroke-linejoin="round"/>
<path d="M38.3987 48.969L41.6057 53.637L47.0357 55.244L43.5867 59.736L43.7367 65.397L38.3987 63.506L33.0617 65.397L33.2107 59.736L29.7627 55.244L35.1927 53.637L38.3987 48.969Z" fill="#00C1D4"/>
<path d="M206.603 48.969L209.809 53.637L215.239 55.244L211.791 59.736L211.94 65.397L206.603 63.506L201.265 65.397L201.415 59.736L197.966 55.244L203.396 53.637L206.603 48.969Z" fill="#00C1D4"/>
<path d="M244.563 122.121C243.924 121.34 237.716 122.58 232.2 123.543L232.032 115.019L225.26 116.155C225.458 110.96 225.601 104.917 225.295 103.029C224.726 99.51 208.711 111.563 191.639 104.525C174.6 97.499 148.628 84.168 122.5 109.32C96.3724 84.167 70.4004 97.499 53.3594 104.524C36.2874 111.562 20.2725 99.5091 19.7035 103.028C19.3985 104.916 19.5414 110.959 19.7394 116.154L12.9674 115.018L12.7994 123.542C7.28344 122.579 1.07544 121.339 0.436444 122.12C-0.545556 123.321 0.436444 240.365 0.436444 240.365C0.436444 240.365 3.28145 251.627 22.6294 257.961C41.9774 264.296 69.2925 250.922 84.0875 248.107C98.8835 245.292 101.728 257.961 103.435 261.48C105.117 264.947 115.909 265.681 122.214 265.702V265.703C122.26 265.703 122.309 265.703 122.356 265.703C122.403 265.703 122.452 265.703 122.498 265.703C122.544 265.703 122.593 265.703 122.64 265.703C122.687 265.703 122.736 265.703 122.782 265.703V265.702C129.087 265.681 139.879 264.947 141.561 261.48C143.268 257.961 146.114 245.292 160.909 248.107C175.705 250.922 203.02 264.295 222.368 257.961C241.716 251.626 244.561 240.365 244.561 240.365C244.561 240.365 245.546 123.321 244.563 122.121Z" fill="#512D6D"/>
<path d="M228.484 120.859C226.195 121.19 224.478 121.833 222.339 121.67C222.339 121.67 225.781 222.027 222.487 228.707C216.788 240.264 174.459 225.217 158.535 223.329C132.831 220.282 122.501 238.983 122.501 238.983C122.501 238.983 112.171 220.282 86.4675 223.329C70.5435 225.217 28.2145 240.264 22.5155 228.707C19.2215 222.027 22.6635 121.67 22.6635 121.67C20.5235 121.832 18.8076 121.19 16.5186 120.859C16.0796 160.969 16.6255 230.014 17.5475 233.53C17.8865 234.674 19.5876 236.552 22.6156 238.156C25.8996 239.895 34.3105 242.315 47.5565 238.114C65.8325 232.318 88.3045 226.019 102.503 229.652C113.592 232.485 119.011 238.163 122.502 244.467C125.993 238.164 131.412 232.486 142.501 229.652C156.699 226.019 179.172 232.318 197.447 238.114C210.693 242.315 219.104 239.895 222.388 238.156C225.416 236.551 227.117 234.673 227.456 233.53C228.377 230.014 228.922 160.969 228.484 120.859Z" fill="#F8485E"/>
<path d="M239.548 128.475C239.142 127.738 236.4 128.529 233.058 129.231C233.257 147.576 234.067 231.545 232.742 236.028C232.074 238.29 229.593 240.748 226.108 242.602C222.447 244.55 212.383 248.532 198.033 243.453C183.814 238.421 157.813 230.529 143.443 234.217C130.696 237.489 125.646 244.868 122.5 252.357C119.354 244.868 114.304 237.489 101.557 234.217C87.1872 230.529 61.1862 238.421 46.9672 243.453C32.6172 248.532 22.5542 244.55 18.8922 242.602C15.4072 240.748 12.9262 238.29 12.2582 236.028C10.9332 231.546 11.7432 147.576 11.9422 129.231C8.60023 128.529 5.85823 127.738 5.45223 128.475C4.66323 129.906 5.45223 234.031 5.45223 237.55C5.45223 241.069 17.7082 256.554 39.3012 251.627C60.8942 246.7 80.7362 234.735 94.7432 240.365C108.749 245.996 109.119 254.694 110.686 256.583C112.253 258.472 118.157 260.019 122.543 260.019C126.93 260.019 132.749 258.473 134.315 256.583C135.882 254.694 136.251 245.995 150.258 240.365C164.264 234.734 184.107 246.7 205.7 251.627C227.293 256.554 239.549 241.069 239.549 237.55C239.548 234.031 240.337 129.906 239.548 128.475Z" fill="#00C1D4"/>
<path d="M66.5746 213.209C54.2666 217.342 45.2566 220.192 39.8276 220.192C37.5896 220.192 35.9605 219.708 34.9585 218.631C29.5145 212.779 33.3536 130.996 34.3196 112.299C30.0546 111.472 27.3156 110.412 27.3156 110.412C27.3156 110.412 24.0816 222.262 29.0996 225.642C34.8266 229.5 62.8175 221.749 84.9525 216.906C106.935 212.096 120.1 226.627 120.1 226.627V216.435C105.941 207.717 86.4776 206.529 66.5746 213.209Z" fill="#E1F2F0"/>
<path d="M178.426 213.209C190.734 217.342 199.744 220.192 205.173 220.192C207.411 220.192 209.039 219.708 210.042 218.631C215.486 212.779 211.647 130.996 210.68 112.299C214.945 111.472 217.684 110.412 217.684 110.412C217.684 110.412 220.918 222.262 215.899 225.642C210.172 229.5 182.181 221.749 160.046 216.906C138.064 212.096 124.899 226.627 124.899 226.627V216.435C139.06 207.717 158.523 206.529 178.426 213.209Z" fill="#E1F2F0"/>
<path d="M148.258 24.5C149 36.75 140.84 42.23 140.84 42.23C141.211 8.059 112.651 0 112.651 0C123.407 33.204 80.3514 44.484 81.0024 68.664C81.4154 83.987 97.0734 103.157 97.0734 103.157H146.501C187.096 61.894 148.258 24.5 148.258 24.5Z" fill="#512D6D"/>
<path d="M151.673 35.906C150.651 48.678 135.653 52.546 135.653 52.546C139.402 28.082 119.633 9.026 119.633 9.026C126.791 32.886 88.0747 48.286 88.2427 66.108C88.4387 86.967 102.931 99.934 102.931 99.934H139.403C173.488 71.888 151.673 35.906 151.673 35.906Z" fill="#F8485E"/>
<path d="M105.843 59.78C106.484 67.79 115.89 70.216 115.89 70.216C113.539 54.874 125.937 42.923 125.937 42.923C121.448 57.886 146.031 67.546 146.245 78.721C146.459 89.896 133.419 99.934 133.419 99.934H115.249C94.0857 90.634 105.843 59.78 105.843 59.78Z" fill="#512D6D"/>
<path d="M116.789 99.211H131.021C133.661 96.951 143.208 86.698 143.057 78.784C142.991 75.326 138.679 71.074 134.508 66.961C130.185 62.698 125.167 57.75 123.129 51.891C120.475 56.351 117.962 62.689 119.039 69.715L119.783 74.568C119.783 74.568 112.911 75.213 106.736 68.613C106.264 70.997 105.876 73.758 105.791 76.624C105.497 86.584 109.766 95.854 116.789 99.211Z" fill="#E1F2F0"/>
<path d="M149.051 94.944H95.9506C90.6336 94.944 86.3076 99.521 86.3076 105.148C86.3076 110.775 90.6336 115.352 95.9506 115.352H100.006C100.035 115.615 100.093 115.876 100.181 116.131L104.938 129.879C100.595 130.174 97.1456 134.006 97.1456 138.676C97.1456 143.537 100.883 147.491 105.476 147.491H107.516C107.517 147.59 107.521 147.69 107.53 147.79L113.103 210.53C113.12 210.719 113.151 210.903 113.195 211.081C110.941 211.996 109.337 214.31 109.337 217.013C109.337 220.222 111.597 222.882 114.521 223.306C114.454 223.581 114.418 223.868 114.418 224.165C114.418 228.881 118.044 232.718 122.501 232.718C126.958 232.718 130.584 228.881 130.584 224.165C130.584 223.868 130.549 223.58 130.481 223.306C133.405 222.882 135.665 220.222 135.665 217.013C135.665 214.31 134.061 211.996 131.807 211.08C131.851 210.902 131.883 210.718 131.899 210.529L137.472 147.789C137.481 147.689 137.485 147.589 137.486 147.49H139.525C144.119 147.49 147.855 143.536 147.855 138.675C147.855 134.006 144.406 130.173 140.063 129.879L144.82 116.131C144.908 115.877 144.967 115.615 144.995 115.352H149.05C154.367 115.352 158.693 110.775 158.693 105.148C158.693 99.522 154.368 94.944 149.051 94.944Z" fill="#512D6D"/>
<path d="M155.463 105.148C155.463 108.896 152.592 111.935 149.049 111.935H95.9501C92.4081 111.935 89.5361 108.896 89.5361 105.148C89.5361 101.4 92.4071 98.361 95.9501 98.361H149.049C152.592 98.361 155.463 101.4 155.463 105.148Z" fill="#00C1D4"/>
<path d="M144.626 138.675C144.626 141.656 142.342 144.073 139.525 144.073H105.476C102.659 144.073 100.375 141.656 100.375 138.675C100.375 135.694 102.659 133.277 105.476 133.277H139.525C142.342 133.277 144.626 135.694 144.626 138.675Z" fill="#00C1D4"/>
<path d="M132.434 217.012C132.434 218.633 131.192 219.947 129.66 219.947H115.339C113.807 219.947 112.566 218.633 112.566 217.012C112.566 215.391 113.808 214.077 115.339 214.077H129.66C131.192 214.077 132.434 215.391 132.434 217.012Z" fill="#00C1D4"/>
<path d="M117.436 223.865C117.436 226.506 119.704 228.648 122.501 228.648C125.298 228.648 127.566 226.507 127.566 223.865H117.436Z" fill="#F8485E"/>
<path d="M125.702 147.469L124.212 210.209H128.683L134.256 147.469H125.702Z" fill="#F8485E"/>
<path d="M119.298 147.469H110.744L116.317 210.209H120.787L119.298 147.469Z" fill="#F8485E"/>
<path d="M136.241 114.956L132.528 130.021H136.576L141.788 114.956H136.241Z" fill="#F8485E"/>
<path d="M103.213 114.956L108.426 130.021H112.474L108.761 114.956H103.213Z" fill="#F8485E"/>
<path d="M119.88 114.956H113.354L115.826 130.021H120.52L119.88 114.956Z" fill="#F8485E"/>
<path d="M125.12 114.956L124.48 130.021H129.174L131.646 114.956H125.12Z" fill="#F8485E"/>
<path d="M112.827 63.437C112.827 63.437 104.357 56.596 108.352 46.904C111.754 38.651 124.153 33.878 124.541 24.25C124.541 24.25 128.297 29.813 123.768 36.433C119.239 43.055 108.355 52.162 112.827 63.437Z" fill="#E1F2F0"/>
<path d="M151.174 105.018C151.174 106.254 150.227 107.256 149.06 107.256H95.9402C94.7722 107.256 93.8262 106.254 93.8262 105.018C93.8262 103.782 94.7732 102.78 95.9402 102.78H149.06C150.228 102.781 151.174 103.782 151.174 105.018Z" fill="#E1F2F0"/>
<path d="M140.916 138.416C140.916 139.36 140.193 140.125 139.301 140.125H105.699C104.807 140.125 104.084 139.36 104.084 138.416C104.084 137.472 104.807 136.707 105.699 136.707H139.301C140.193 136.707 140.916 137.472 140.916 138.416Z" fill="#E1F2F0"/>
<path d="M129.35 217.014C129.35 217.719 128.81 218.29 128.144 218.29H116.855C116.189 218.29 115.649 217.719 115.649 217.014C115.649 216.309 116.189 215.738 116.855 215.738H128.144C128.81 215.738 129.35 216.309 129.35 217.014Z" fill="#E1F2F0"/>
<path d="M101.029 258.465C101.029 258.465 99.5256 271.651 85.9766 275.44C85.9766 275.44 88.1266 262.939 101.029 258.465Z" fill="#F8485E"/>
<path d="M89.7237 255.36C89.7237 255.36 87.0707 266.121 74.5557 266.228C74.5557 266.228 77.7207 256.192 89.7237 255.36Z" fill="#E1F2F0"/>
<path d="M77.5208 252.703C77.5208 252.703 73.7128 260.931 63.7178 259.024C63.7178 259.024 67.8198 251.46 77.5208 252.703Z" fill="#00C1D4"/>
<path d="M143.971 258.465C143.971 258.465 145.474 271.651 159.023 275.44C159.023 275.44 156.872 262.939 143.971 258.465Z" fill="#F8485E"/>
<path d="M155.275 255.36C155.275 255.36 157.928 266.121 170.443 266.228C170.443 266.228 167.278 256.192 155.275 255.36Z" fill="#E1F2F0"/>
<path d="M167.479 252.703C167.479 252.703 171.287 260.931 181.281 259.024C181.281 259.024 177.18 251.46 167.479 252.703Z" fill="#00C1D4"/>
<path d="M87.5618 92.941C87.5618 92.941 85.1898 79.039 71.5518 75.95C71.5518 75.95 74.5158 89.08 87.5618 92.941Z" fill="#00C1D4"/>
<path d="M75.7487 94.7979C75.7487 94.7979 70.2788 84.1759 58.0938 87.3909C58.0938 87.3909 63.8667 97.1149 75.7487 94.7979Z" fill="#E1F2F0"/>
<path d="M63.1568 100.88C63.1568 100.88 58.7408 93.3459 49.8398 96.4459C49.8398 96.4459 54.4488 103.297 63.1568 100.88Z" fill="#F8485E"/>
<path d="M157.438 92.941C157.438 92.941 159.81 79.039 173.448 75.95C173.448 75.95 170.483 89.08 157.438 92.941Z" fill="#00C1D4"/>
<path d="M169.251 94.7979C169.251 94.7979 174.721 84.1759 186.906 87.3909C186.906 87.3909 181.133 97.1149 169.251 94.7979Z" fill="#E1F2F0"/>
<path d="M181.843 100.88C181.843 100.88 186.259 93.3459 195.16 96.4459C195.16 96.4459 190.551 103.297 181.843 100.88Z" fill="#F8485E"/>
<path d="M93.0983 197.752C93.0563 197.752 93.0133 197.746 92.9723 197.733C75.6343 192.485 61.1393 178.328 56.0433 161.667C52.8693 151.288 51.8273 135.018 64.8893 116.452C65.0483 116.226 65.3443 116.183 65.5523 116.357C65.7593 116.531 65.7983 116.856 65.6393 117.082C55.5003 131.493 52.4933 146.797 56.9403 161.34C61.9383 177.684 76.1813 191.579 93.2243 196.738C93.4763 196.814 93.6233 197.098 93.5543 197.374C93.4953 197.601 93.3053 197.752 93.0983 197.752Z" fill="#E1F2F0"/>
<path d="M86.7188 194.898C86.7188 194.898 82.3068 202.819 67.2998 196.728C67.2998 196.728 76.0208 189.411 86.7188 194.898Z" fill="#E1F2F0"/>
<path d="M86.4979 194.366C86.4979 194.366 77.9469 193.596 77.5889 178.531C77.5889 178.531 87.2399 183.195 86.4979 194.366Z" fill="#E1F2F0"/>
<path d="M74.5159 187.977C74.5159 187.977 67.8029 194.116 55.5059 183.652C55.5059 183.652 66.1159 179.43 74.5159 187.977Z" fill="#E1F2F0"/>
<path d="M74.6605 187.457C74.6605 187.457 66.6555 184.557 70.2365 170.212C70.2365 170.212 78.2825 177.076 74.6605 187.457Z" fill="#E1F2F0"/>
<path d="M64.0876 176.514C64.0876 176.514 56.0386 180.802 46.7686 167.635C46.7686 167.635 58.1076 166.165 64.0876 176.514Z" fill="#E1F2F0"/>
<path d="M64.0097 176.257C64.0097 176.257 57.2797 170.597 65.9517 157.985C65.9517 157.985 71.2867 167.497 64.0097 176.257Z" fill="#E1F2F0"/>
<path d="M57.6781 163.799C57.6781 163.799 49.5241 165.554 44.7461 151.693C44.7461 151.693 55.0681 153.23 57.6781 163.799Z" fill="#E1F2F0"/>
<path d="M57.3435 163.52C57.3435 163.52 52.7195 157.115 63.1975 147.756C63.1975 147.756 65.7225 157.28 57.3435 163.52Z" fill="#E1F2F0"/>
<path d="M54.7052 150.503C54.7052 150.503 46.7652 150.457 45.2412 136.604C45.2412 136.604 54.5032 140.152 54.7052 150.503Z" fill="#E1F2F0"/>
<path d="M54.8833 150.302C54.8833 150.302 52.4543 143.079 64.8343 137.382C64.8343 137.382 64.4243 146.896 54.8833 150.302Z" fill="#E1F2F0"/>
<path d="M55.3754 139.12C55.3754 139.12 47.7505 136.928 50.1135 123.191C50.1135 123.191 58.0414 129.109 55.3754 139.12Z" fill="#E1F2F0"/>
<path d="M55.5969 138.782C55.5969 138.782 54.8119 131.345 67.9059 128.472C67.9059 128.472 65.4779 137.512 55.5969 138.782Z" fill="#E1F2F0"/>
<path d="M58.8215 127.336C58.8215 127.336 52.2815 123.657 57.5125 111.509C57.5125 111.509 63.5045 118.689 58.8215 127.336Z" fill="#E1F2F0"/>
<path d="M59.2695 127.148C59.2695 127.148 60.3515 119.952 73.3925 120.382C73.3925 120.382 68.8905 128.319 59.2695 127.148Z" fill="#E1F2F0"/>
<path d="M63.3512 119.541C63.3512 119.541 62.9812 110.774 73.5212 107.254C73.5212 107.254 73.6692 117.451 63.3512 119.541Z" fill="#E1F2F0"/>
<path d="M151.902 197.752C151.944 197.752 151.987 197.746 152.029 197.733C169.367 192.485 183.862 178.328 188.958 161.667C192.132 151.288 193.174 135.018 180.112 116.452C179.953 116.226 179.657 116.183 179.449 116.357C179.242 116.531 179.203 116.856 179.362 117.082C189.5 131.493 192.508 146.797 188.061 161.34C183.063 177.684 168.82 191.579 151.777 196.738C151.525 196.814 151.378 197.098 151.447 197.374C151.505 197.601 151.695 197.752 151.902 197.752Z" fill="#E1F2F0"/>
<path d="M158.28 194.898C158.28 194.898 162.692 202.819 177.699 196.728C177.699 196.728 168.978 189.411 158.28 194.898Z" fill="#E1F2F0"/>
<path d="M158.502 194.366C158.502 194.366 167.053 193.596 167.411 178.531C167.411 178.531 157.76 183.195 158.502 194.366Z" fill="#E1F2F0"/>
<path d="M170.482 187.977C170.482 187.977 177.196 194.116 189.492 183.652C189.492 183.652 178.883 179.43 170.482 187.977Z" fill="#E1F2F0"/>
<path d="M170.339 187.457C170.339 187.457 178.344 184.557 174.763 170.212C174.763 170.212 166.717 177.076 170.339 187.457Z" fill="#E1F2F0"/>
<path d="M180.913 176.514C180.913 176.514 188.962 180.802 198.232 167.635C198.232 167.635 186.893 166.165 180.913 176.514Z" fill="#E1F2F0"/>
<path d="M180.99 176.257C180.99 176.257 187.72 170.597 179.048 157.985C179.048 157.985 173.713 167.497 180.99 176.257Z" fill="#E1F2F0"/>
<path d="M187.321 163.799C187.321 163.799 195.474 165.554 200.253 151.693C200.253 151.693 189.931 153.23 187.321 163.799Z" fill="#E1F2F0"/>
<path d="M187.656 163.52C187.656 163.52 192.28 157.115 181.802 147.756C181.802 147.756 179.277 157.28 187.656 163.52Z" fill="#E1F2F0"/>
<path d="M190.294 150.503C190.294 150.503 198.234 150.457 199.758 136.604C199.758 136.604 190.497 140.152 190.294 150.503Z" fill="#E1F2F0"/>
<path d="M190.117 150.302C190.117 150.302 192.546 143.079 180.166 137.382C180.166 137.382 180.576 146.896 190.117 150.302Z" fill="#E1F2F0"/>
<path d="M189.625 139.12C189.625 139.12 197.25 136.928 194.887 123.191C194.887 123.191 186.959 129.109 189.625 139.12Z" fill="#E1F2F0"/>
<path d="M189.403 138.782C189.403 138.782 190.188 131.345 177.094 128.472C177.094 128.472 179.522 137.512 189.403 138.782Z" fill="#E1F2F0"/>
<path d="M186.178 127.336C186.178 127.336 192.72 123.657 187.488 111.509C187.488 111.509 181.495 118.689 186.178 127.336Z" fill="#E1F2F0"/>
<path d="M185.73 127.148C185.73 127.148 184.648 119.952 171.607 120.382C171.607 120.382 176.109 128.319 185.73 127.148Z" fill="#E1F2F0"/>
<path d="M181.648 119.541C181.648 119.541 182.018 110.774 171.478 107.254C171.478 107.254 171.331 117.451 181.648 119.541Z" fill="#E1F2F0"/>
<path d="M78.438 156.191C75.518 165.455 107.226 187.6 107.226 187.6C90.43 166.25 78.438 156.191 78.438 156.191Z" fill="#00C1D4"/>
<path d="M76.7018 137.302C72.2028 145.912 100.488 166.662 100.488 166.662C87.1168 146.717 76.7018 137.302 76.7018 137.302Z" fill="#F8485E"/>
<path d="M97.1417 151.093C97.1417 151.093 77.7357 130.669 82.7017 124.502C82.7017 124.502 89.5667 133.426 97.1417 151.093Z" fill="#00C1D4"/>
<path d="M166.56 156.191C169.48 165.455 137.772 187.6 137.772 187.6C154.569 166.25 166.56 156.191 166.56 156.191Z" fill="#00C1D4"/>
<path d="M168.298 137.302C172.797 145.912 144.512 166.662 144.512 166.662C157.883 146.717 168.298 137.302 168.298 137.302Z" fill="#F8485E"/>
<path d="M147.857 151.093C147.857 151.093 167.263 130.669 162.297 124.502C162.297 124.502 155.431 133.426 147.857 151.093Z" fill="#00C1D4"/>
<path d="M49.4341 204.199C51.7271 202.076 54.0051 198.783 54.2371 193.942C54.2371 193.942 48.9721 196.251 46.1481 201.878C46.5541 198.707 46.1981 194.599 43.2021 190.73C43.2021 190.73 39.0971 199.392 44.5091 207.401L44.5101 207.402L44.5111 207.401C44.5101 207.402 44.5111 207.402 44.5111 207.402C44.5111 207.402 53.6691 211.002 60.3411 203.697C60.3401 203.696 55.0381 201.943 49.4341 204.199Z" fill="#00C1D4"/>
<path d="M195.566 204.199C193.273 202.076 190.995 198.783 190.763 193.942C190.763 193.942 196.027 196.251 198.852 201.878C198.446 198.707 198.802 194.599 201.798 190.73C201.798 190.73 205.903 199.392 200.491 207.401V207.402L200.49 207.401C200.491 207.402 200.49 207.402 200.49 207.402C200.49 207.402 191.332 211.002 184.66 203.697C184.659 203.696 189.962 201.943 195.566 204.199Z" fill="#00C1D4"/>
</svg>
