<svg width="102" height="53" viewBox="0 0 102 53" fill="none" xmlns="http://www.w3.org/2000/svg">
<ellipse cx="11.5" cy="26.5" rx="11.5" ry="11" fill="#FF385C"/>
<path d="M4 19.5L5.70925 37.4471L6.38376 37.6218L9 18L11.6223 38.9781L12.3876 39.1763L15.5 16.5L17.5 40.5L12.3876 39.1763L12 42L11.6223 38.9781L6.38376 37.6218L6 40.5L5.70925 37.4471L1.04593 36.2397L4 19.5Z" fill="#1B1C1E"/>
<path d="M1 36.5L1.04593 36.2397M1.04593 36.2397L4 19.5L6 40.5L9 18L12 42L15.5 16.5L17.5 40.5L1.04593 36.2397Z" stroke="#1B1C1E"/>
<path d="M47.4801 20.5909H48.8011V27.8139C48.8011 28.5597 48.6254 29.2255 48.2738 29.8114C47.9258 30.3938 47.4339 30.8537 46.7983 31.1911C46.1626 31.5249 45.4169 31.6918 44.5611 31.6918C43.7053 31.6918 42.9595 31.5249 42.3239 31.1911C41.6882 30.8537 41.1946 30.3938 40.843 29.8114C40.495 29.2255 40.321 28.5597 40.321 27.8139V20.5909H41.642V27.7074C41.642 28.2401 41.7592 28.7141 41.9936 29.1296C42.228 29.5415 42.5618 29.8665 42.995 30.1044C43.4318 30.3388 43.9538 30.456 44.5611 30.456C45.1683 30.456 45.6903 30.3388 46.1271 30.1044C46.5639 29.8665 46.8977 29.5415 47.1286 29.1296C47.3629 28.7141 47.4801 28.2401 47.4801 27.7074V20.5909ZM52.5258 26.5781V31.5H51.2687V23.3182H52.4832V24.5966H52.5898C52.7815 24.1811 53.0727 23.8473 53.4633 23.5952C53.854 23.3395 54.3582 23.2116 54.9761 23.2116C55.5301 23.2116 56.0148 23.3253 56.4303 23.5526C56.8458 23.7763 57.1689 24.1172 57.3998 24.5753C57.6306 25.0298 57.746 25.6051 57.746 26.3011V31.5H56.4889V26.3864C56.4889 25.7436 56.322 25.2429 55.9882 24.8842C55.6544 24.522 55.1963 24.3409 54.6139 24.3409C54.2126 24.3409 53.854 24.4279 53.5379 24.6019C53.2254 24.7759 52.9786 25.0298 52.7975 25.3636C52.6164 25.6974 52.5258 26.1023 52.5258 26.5781ZM60.0431 31.5V23.3182H61.3002V31.5H60.0431ZM60.6824 21.9545C60.4373 21.9545 60.226 21.8711 60.0485 21.7042C59.8745 21.5373 59.7875 21.3366 59.7875 21.1023C59.7875 20.8679 59.8745 20.6673 60.0485 20.5004C60.226 20.3335 60.4373 20.25 60.6824 20.25C60.9274 20.25 61.1369 20.3335 61.3109 20.5004C61.4885 20.6673 61.5772 20.8679 61.5772 21.1023C61.5772 21.3366 61.4885 21.5373 61.3109 21.7042C61.1369 21.8711 60.9274 21.9545 60.6824 21.9545ZM66.9053 34.7386C66.298 34.7386 65.776 34.6605 65.3392 34.5043C64.9024 34.3516 64.5384 34.1491 64.2472 33.897C63.9596 33.6484 63.7306 33.3821 63.5601 33.098L64.5615 32.3949C64.6752 32.544 64.819 32.7145 64.993 32.9062C65.167 33.1016 65.4049 33.2702 65.7068 33.4123C66.0122 33.5579 66.4117 33.6307 66.9053 33.6307C67.5658 33.6307 68.1109 33.4709 68.5406 33.1513C68.9703 32.8317 69.1851 32.331 69.1851 31.6491V29.9872H69.0786C68.9862 30.1364 68.8548 30.321 68.6844 30.5412C68.5175 30.7578 68.276 30.9513 67.96 31.1218C67.6475 31.2887 67.2249 31.3722 66.6922 31.3722C66.0317 31.3722 65.4387 31.2159 64.9131 30.9034C64.3911 30.5909 63.9774 30.1364 63.672 29.5398C63.3701 28.9432 63.2192 28.2187 63.2192 27.3665C63.2192 26.5284 63.3666 25.7987 63.6613 25.1772C63.9561 24.5522 64.3662 24.0692 64.8918 23.7283C65.4173 23.3839 66.0246 23.2116 66.7135 23.2116C67.2462 23.2116 67.6688 23.3004 67.9813 23.478C68.2973 23.652 68.5388 23.8509 68.7057 24.0746C68.8762 24.2947 69.0075 24.4759 69.0999 24.6179H69.2277V23.3182H70.4422V31.7344C70.4422 32.4375 70.2824 33.0092 69.9628 33.4496C69.6468 33.8935 69.2206 34.2184 68.6844 34.4244C68.1517 34.6339 67.5587 34.7386 66.9053 34.7386ZM66.8627 30.2429C67.3669 30.2429 67.7931 30.1275 68.1411 29.8967C68.4891 29.6658 68.7536 29.3338 68.9347 28.9006C69.1159 28.4673 69.2064 27.9489 69.2064 27.3452C69.2064 26.7557 69.1176 26.2354 68.9401 25.7844C68.7625 25.3335 68.4997 24.9801 68.1517 24.7244C67.8037 24.4687 67.374 24.3409 66.8627 24.3409C66.33 24.3409 65.8861 24.4759 65.531 24.7457C65.1794 25.0156 64.9149 25.3778 64.7373 25.8324C64.5633 26.2869 64.4763 26.7912 64.4763 27.3452C64.4763 27.9134 64.5651 28.4158 64.7426 28.8526C64.9237 29.2859 65.1901 29.6268 65.5416 29.8754C65.8968 30.1204 66.3371 30.2429 66.8627 30.2429ZM77.8996 28.1548V23.3182H79.1567V31.5H77.8996V30.1151H77.8144C77.6226 30.5305 77.3243 30.8839 76.9195 31.1751C76.5146 31.4627 76.0033 31.6065 75.3854 31.6065C74.874 31.6065 74.4195 31.4947 74.0218 31.271C73.624 31.0437 73.3115 30.7028 73.0843 30.2482C72.857 29.7901 72.7433 29.2131 72.7433 28.517V23.3182H74.0004V28.4318C74.0004 29.0284 74.1673 29.5043 74.5012 29.8594C74.8385 30.2145 75.2682 30.392 75.7902 30.392C76.1027 30.392 76.4205 30.3121 76.7437 30.1523C77.0704 29.9925 77.3438 29.7475 77.564 29.4173C77.7877 29.087 77.8996 28.6662 77.8996 28.1548ZM81.4592 31.5V23.3182H82.7163V31.5H81.4592ZM82.0984 21.9545C81.8533 21.9545 81.642 21.8711 81.4645 21.7042C81.2905 21.5373 81.2035 21.3366 81.2035 21.1023C81.2035 20.8679 81.2905 20.6673 81.4645 20.5004C81.642 20.3335 81.8533 20.25 82.0984 20.25C82.3434 20.25 82.5529 20.3335 82.7269 20.5004C82.9045 20.6673 82.9933 20.8679 82.9933 21.1023C82.9933 21.3366 82.9045 21.5373 82.7269 21.7042C82.5529 21.8711 82.3434 21.9545 82.0984 21.9545ZM88.1082 31.6705C87.4264 31.6705 86.8245 31.4982 86.3025 31.1538C85.7805 30.8058 85.3721 30.3157 85.0773 29.6836C84.7826 29.0479 84.6352 28.2969 84.6352 27.4304C84.6352 26.571 84.7826 25.8253 85.0773 25.1932C85.3721 24.5611 85.7822 24.0728 86.3078 23.7283C86.8334 23.3839 87.4406 23.2116 88.1295 23.2116C88.6622 23.2116 89.083 23.3004 89.392 23.478C89.7045 23.652 89.9424 23.8509 90.1057 24.0746C90.2726 24.2947 90.4023 24.4759 90.4946 24.6179H90.6011V20.5909H91.8582V31.5H90.6437V30.2429H90.4946C90.4023 30.392 90.2709 30.5803 90.1004 30.8075C89.93 31.0312 89.6867 31.2319 89.3707 31.4094C89.0546 31.5835 88.6338 31.6705 88.1082 31.6705ZM88.2787 30.5412C88.7829 30.5412 89.2091 30.4098 89.5571 30.147C89.9051 29.8807 90.1697 29.5131 90.3508 29.0444C90.5319 28.5721 90.6224 28.027 90.6224 27.4091C90.6224 26.7983 90.5336 26.2638 90.3561 25.8058C90.1785 25.3441 89.9157 24.9854 89.5677 24.7298C89.2197 24.4705 88.79 24.3409 88.2787 24.3409C87.746 24.3409 87.3021 24.4776 86.947 24.7511C86.5954 25.021 86.3309 25.3885 86.1533 25.8537C85.9793 26.3153 85.8923 26.8338 85.8923 27.4091C85.8923 27.9915 85.9811 28.5206 86.1586 28.9964C86.3398 29.4687 86.6061 29.8452 86.9577 30.1257C87.3128 30.4027 87.7531 30.5412 88.2787 30.5412ZM97.7655 31.6705C96.9772 31.6705 96.2971 31.4964 95.7254 31.1484C95.1572 30.7969 94.7187 30.3068 94.4097 29.6783C94.1043 29.0462 93.9516 28.3111 93.9516 27.473C93.9516 26.6349 94.1043 25.8963 94.4097 25.2571C94.7187 24.6143 95.1483 24.1136 95.6988 23.755C96.2528 23.3928 96.8991 23.2116 97.6377 23.2116C98.0638 23.2116 98.4846 23.2827 98.9001 23.4247C99.3156 23.5668 99.6938 23.7976 100.035 24.1172C100.376 24.4332 100.647 24.8523 100.85 25.3743C101.052 25.8963 101.153 26.5391 101.153 27.3026V27.8352H94.8465V26.7486H99.8749C99.8749 26.2869 99.7826 25.875 99.5979 25.5128C99.4168 25.1506 99.1576 24.8647 98.8202 24.6552C98.4864 24.4457 98.0922 24.3409 97.6377 24.3409C97.137 24.3409 96.7037 24.4652 96.338 24.7138C95.9758 24.9588 95.697 25.2784 95.5017 25.6726C95.3064 26.0668 95.2087 26.4893 95.2087 26.9403V27.6648C95.2087 28.2827 95.3153 28.8065 95.5283 29.2362C95.7449 29.6623 96.045 29.9872 96.4285 30.2109C96.8121 30.4311 97.2577 30.5412 97.7655 30.5412C98.0958 30.5412 98.3941 30.495 98.6604 30.4027C98.9303 30.3068 99.1629 30.1648 99.3582 29.9766C99.5535 29.7848 99.7045 29.5469 99.811 29.2628L101.025 29.6037C100.898 30.0156 100.683 30.3778 100.381 30.6903C100.079 30.9993 99.7062 31.2408 99.2623 31.4148C98.8184 31.5852 98.3195 31.6705 97.7655 31.6705Z" fill="white"/>
<path d="M40.5 35.5L45.5 32V35.5L50 32L54 35.5L57.5 32L60 35.5L64 32V35.5L68 32V35.5L75.5 32V35.5L81.5 32L80.5 35.5L86 32V35.5L92.5 32V35.5L99 32V35.5" stroke="#FF385C"/>
</svg>
