<svg width="32" height="32" viewBox="0 0 32 32" fill="none" xmlns="http://www.w3.org/2000/svg">
<path d="M26 22H25V13.2393C25 8.6119 21.4941 4.7911 17 4.2842V3C17 2.4478 16.5527 2 16 2C15.4473 2 15 2.4478 15 3V4.2793C10.5078 4.771 7 8.5845 7 13.2051V22H6C5.4473 22 5 22.4478 5 23C5 23.5522 5.4473 24 6 24H7.001H25H26C26.5527 24 27 23.5522 27 23C27 22.4478 26.5527 22 26 22ZM9 22V13.2051C9 9.355 12.1328 6.2227 15.9824 6.2227C19.8516 6.2227 23 9.3701 23 13.2393V22H9ZM18 27C18 28.1045 17.1045 29 16 29C14.8955 29 14 28.1045 14 27C14 25.8955 14.8955 25 16 25C17.1045 25 18 25.8955 18 27Z" fill="white"/>
</svg>
