<svg width="395" height="425" viewBox="0 0 395 425" fill="none" xmlns="http://www.w3.org/2000/svg">
<path d="M366.581 257.586C345.035 222.508 309.344 195.195 298.623 155.449C292.825 133.953 295.025 110.632 287.143 89.8099C276.613 61.9929 248.14 42.7749 218.485 40.4809C188.83 38.1869 159.031 51.6179 138.721 73.3469C108.257 105.939 99.0916 153.38 71.9556 188.791C55.0716 210.824 31.6266 227.644 17.3756 251.465C3.39958 274.824 -0.464418 303.156 1.79258 330.283C4.04958 357.41 12.0426 383.7 20.4286 409.597L374.805 405.883C396.781 359.205 393.584 301.549 366.581 257.586Z" fill="#E9EFFF" fill-opacity="0.4"/>
<path d="M314.86 243.534C314.133 243.26 313.418 243.011 312.716 242.787C311.4 242.367 310.418 241.29 310.138 239.937C309.823 238.412 309.427 236.811 308.971 235.153C308.758 234.377 307.647 234.381 307.434 235.157C306.989 236.781 306.601 238.365 306.286 239.901C306.019 241.203 305.09 242.258 303.833 242.69C303.088 242.946 302.318 243.239 301.533 243.554C300.852 243.828 300.85 244.798 301.529 245.077C302.306 245.396 303.075 245.691 303.829 245.947C305.06 246.365 305.94 247.435 306.214 248.706C306.539 250.213 306.969 251.816 307.452 253.469C307.673 254.225 308.75 254.226 308.976 253.472C309.467 251.827 309.901 250.212 310.226 248.65C310.506 247.302 311.479 246.226 312.789 245.801C313.462 245.583 314.152 245.339 314.859 245.072C315.563 244.807 315.564 243.799 314.86 243.534Z" fill="white"/>
<path d="M38.757 275.745C38.03 275.471 37.315 275.222 36.612 274.998C35.296 274.578 34.314 273.501 34.034 272.148C33.719 270.623 33.323 269.022 32.867 267.363C32.653 266.587 31.543 266.591 31.33 267.367C30.885 268.991 30.497 270.575 30.182 272.111C29.915 273.413 28.986 274.468 27.73 274.9C26.985 275.156 26.215 275.449 25.43 275.764C24.749 276.038 24.747 277.009 25.426 277.287C26.203 277.606 26.972 277.901 27.726 278.158C28.957 278.576 29.837 279.646 30.111 280.917C30.436 282.424 30.866 284.027 31.349 285.68C31.57 286.436 32.647 286.437 32.873 285.683C33.364 284.038 33.798 282.423 34.123 280.861C34.404 279.513 35.376 278.437 36.686 278.012C37.359 277.794 38.049 277.55 38.756 277.283C39.46 277.018 39.461 276.01 38.757 275.745Z" fill="white"/>
<path d="M90.9516 239.352C90.3956 239.142 89.8486 238.952 89.3116 238.781C88.3056 238.46 87.5546 237.636 87.3406 236.602C87.0996 235.436 86.7966 234.212 86.4486 232.944C86.2856 232.351 85.4356 232.353 85.2736 232.947C84.9336 234.189 84.6366 235.4 84.3956 236.574C84.1916 237.569 83.4816 238.376 82.5206 238.707C81.9506 238.903 81.3626 239.127 80.7616 239.368C80.2406 239.577 80.2396 240.32 80.7586 240.533C81.3526 240.777 81.9406 241.002 82.5176 241.198C83.4586 241.518 84.1316 242.336 84.3416 243.308C84.5906 244.46 84.9186 245.686 85.2886 246.95C85.4576 247.528 86.2816 247.529 86.4536 246.952C86.8296 245.694 87.1606 244.459 87.4096 243.265C87.6236 242.234 88.3676 241.411 89.3696 241.087C89.8846 240.92 90.4116 240.734 90.9526 240.53C91.4886 240.326 91.4896 239.555 90.9516 239.352Z" fill="white"/>
<path d="M113.205 308.094C112.815 307.947 112.432 307.814 112.056 307.694C111.351 307.469 110.825 306.892 110.675 306.167C110.506 305.35 110.294 304.492 110.05 303.603C109.936 303.187 109.34 303.189 109.226 303.605C108.987 304.475 108.78 305.324 108.611 306.147C108.468 306.844 107.97 307.41 107.297 307.641C106.898 307.778 106.485 307.935 106.065 308.104C105.7 308.251 105.699 308.771 106.063 308.92C106.479 309.091 106.891 309.249 107.295 309.386C107.954 309.61 108.426 310.184 108.573 310.864C108.747 311.671 108.977 312.53 109.236 313.416C109.354 313.821 109.932 313.822 110.052 313.417C110.315 312.536 110.548 311.67 110.722 310.834C110.872 310.112 111.393 309.535 112.095 309.307C112.456 309.19 112.825 309.06 113.204 308.917C113.582 308.776 113.582 308.236 113.205 308.094Z" fill="white"/>
<path d="M274.318 280.62C273.928 280.473 273.545 280.34 273.169 280.22C272.464 279.995 271.938 279.418 271.788 278.693C271.619 277.876 271.407 277.018 271.163 276.129C271.049 275.713 270.453 275.715 270.339 276.131C270.1 277.001 269.893 277.85 269.724 278.673C269.581 279.371 269.083 279.936 268.41 280.167C268.011 280.304 267.598 280.461 267.178 280.63C266.813 280.777 266.812 281.297 267.176 281.446C267.593 281.617 268.004 281.775 268.408 281.912C269.067 282.136 269.539 282.71 269.686 283.39C269.86 284.197 270.09 285.056 270.35 285.942C270.468 286.347 271.046 286.348 271.166 285.943C271.429 285.062 271.662 284.196 271.836 283.359C271.986 282.637 272.508 282.06 273.209 281.832C273.57 281.715 273.939 281.585 274.318 281.442C274.695 281.303 274.695 280.762 274.318 280.62Z" fill="white"/>
<path d="M270.714 164.648C270.158 164.438 269.611 164.248 269.074 164.077C268.068 163.756 267.317 162.932 267.103 161.898C266.862 160.732 266.56 159.508 266.211 158.24C266.048 157.647 265.198 157.649 265.036 158.243C264.696 159.485 264.399 160.696 264.158 161.87C263.954 162.865 263.244 163.672 262.283 164.002C261.713 164.198 261.125 164.422 260.524 164.663C260.003 164.872 260.002 165.615 260.521 165.828C261.115 166.072 261.703 166.297 262.28 166.494C263.221 166.814 263.894 167.632 264.104 168.604C264.353 169.756 264.681 170.982 265.051 172.246C265.22 172.824 266.044 172.825 266.216 172.248C266.592 170.99 266.923 169.755 267.172 168.561C267.386 167.53 268.13 166.707 269.132 166.382C269.647 166.215 270.174 166.029 270.715 165.825C271.252 165.621 271.252 164.85 270.714 164.648Z" fill="white"/>
<path d="M355.158 320.151C353.418 320.253 351.951 321.148 350.491 322.015C349.74 322.461 349.05 323.041 348.187 323.219C347.323 323.397 346.383 323.295 345.888 322.478C345.392 321.661 345.741 320.694 346.4 320.032C347.059 319.37 347.944 319.083 348.8 318.683C352.813 316.807 356.368 314.351 359.283 311.02C360.973 309.089 362.33 306.886 362.1 304.33C361.87 301.773 359.58 299.831 357.095 300.538C356.015 300.845 355.405 301.902 354.542 302.576C353.679 303.25 352.713 303.83 351.574 303.472C351.109 300.228 352.66 297.564 354.611 295.162C356.562 292.76 358.997 290.684 359.878 287.776C360.759 284.868 359.837 281.56 356.812 280.743C354.675 280.166 352.925 281.5 351.426 283.062C349.116 285.468 347.677 288.619 346.91 291.919C346.655 293.018 346.587 294.244 346.138 295.258C345.689 296.272 344.886 297.261 343.746 297.225C341.74 297.161 340.919 294.772 338.938 294.582C337.448 294.44 336.364 295.767 336.173 297.2C335.981 298.633 336.521 300.003 337.033 301.342C337.947 303.732 338.931 306.129 339.848 308.518C340.278 309.638 340.785 310.819 340.801 312.015C340.817 313.211 340.521 314.487 339.398 315.069C337.712 315.943 336.059 314.766 334.62 313.888C333.181 313.01 331.196 312.009 329.748 313.158C328.3 314.306 328.664 315.993 329.106 317.589C329.944 320.61 331.428 323.429 333.258 326.004C334.281 327.444 335.631 328.776 336.164 330.462C336.697 332.148 336.554 334.175 334.775 334.936C332.996 335.697 331.366 333.83 329.469 334.194C327.158 334.638 326.005 337.114 326.389 339.499C326.858 342.409 328.522 344.754 330.619 346.857C332.716 348.96 335.243 350.616 337.273 352.836C340.7 356.583 342.824 360.667 343.818 365.638C343.981 366.453 343.863 369.252 345.21 368.461C346.558 367.67 345.331 364.292 345.237 363.192C344.923 359.511 346.069 356.678 348.278 354.055C350.487 351.432 353.095 349.806 355.488 347.478C356.75 346.25 357.955 344.901 358.381 343.162C358.808 341.423 358.219 339.476 356.548 338.801C354.877 338.126 353.395 339.065 352.059 339.945C350.723 340.825 349.618 342.13 348.074 342.621C346.529 343.112 344.62 342.664 344.062 341.057C343.504 339.45 344.778 338.234 345.916 337.261C348.767 334.823 351.918 332.81 355.029 330.676C356.504 329.665 358.122 328.645 359.156 327.119C360.19 325.594 360.571 323.61 359.57 322.035C358.57 320.456 356.898 320.049 355.158 320.151Z" fill="#FFB552"/>
<path d="M344.667 368.575C337.127 334.695 341.037 306.395 357.847 281.165" stroke="#0E1823" stroke-opacity="0.4" stroke-width="0.25" stroke-miterlimit="10" stroke-linecap="round" stroke-linejoin="round"/>
<path d="M343.632 313.68C349.922 312.636 355.628 308.199 360.983 301.723" stroke="#0E1823" stroke-opacity="0.4" stroke-width="0.25" stroke-miterlimit="10" stroke-linecap="round" stroke-linejoin="round"/>
<path d="M345.487 306.852C341.335 304.44 338.542 300.58 337.14 295.237" stroke="#0E1823" stroke-opacity="0.4" stroke-width="0.25" stroke-miterlimit="10" stroke-linecap="round" stroke-linejoin="round"/>
<path d="M341.566 326.09C336.705 323.997 332.942 319.261 329.748 313.155" stroke="#0E1823" stroke-opacity="0.4" stroke-width="0.25" stroke-miterlimit="10" stroke-linecap="round" stroke-linejoin="round"/>
<path d="M341.092 332.63C347.132 331.152 353.308 327.336 359.571 322.032" stroke="#0E1823" stroke-opacity="0.4" stroke-width="0.25" stroke-miterlimit="10" stroke-linecap="round" stroke-linejoin="round"/>
<path d="M341.903 352.508C347.936 350.557 353.187 346.04 357.987 340.036" stroke="#0E1823" stroke-opacity="0.4" stroke-width="0.25" stroke-miterlimit="10" stroke-linecap="round" stroke-linejoin="round"/>
<path d="M341.241 345.229C336.091 343.951 331.366 340.687 326.923 336.107" stroke="#0E1823" stroke-opacity="0.4" stroke-width="0.25" stroke-miterlimit="10" stroke-linecap="round" stroke-linejoin="round"/>
<path d="M394.201 373.635C392.96 371.143 390.053 369.959 387.306 369.509C382.188 368.671 376.783 369.707 372.338 372.378C374.669 369.193 373.467 364.043 369.966 362.219C367.308 360.834 363.842 361.637 361.767 363.738C364.796 359.097 368.207 354.662 370.191 349.504C372.509 343.48 372.384 335.861 367.69 331.431C362.252 326.298 352.826 327.855 347.429 333.031C342.032 338.207 339.86 345.876 338.756 353.272C338.378 348.35 337.391 342.512 332.889 340.487C328.53 338.525 323.248 341.726 321.222 346.055C319.196 350.385 319.541 355.401 319.928 360.165C318.563 354.362 314.293 348.97 308.483 347.635C302.673 346.3 295.788 350.177 295.064 356.094C294.496 360.735 297.409 364.787 300.827 368.224C297.812 366.069 293.934 365.045 290.188 364.6C284.774 363.957 278.833 364.425 274.628 367.895C269.917 371.784 268.561 378.88 270.653 384.62C272.745 390.36 277.8 394.704 283.499 396.905C289.198 399.106 295.488 399.356 301.562 398.704L373.322 404.527C383.594 400.308 391.636 391.018 394.341 380.248C394.888 378.063 395.206 375.652 394.201 373.635Z" fill="#DFFF57" fill-opacity="0.4"/>
<path d="M270.752 373.381C276.559 375.02 282.262 376.987 287.629 379.731C296.208 384.095 304 390.651 308.205 399.249" stroke="#0E1823" stroke-opacity="0.4" stroke-width="0.25" stroke-miterlimit="10" stroke-linecap="round" stroke-linejoin="round"/>
<path d="M299.27 349.526C299.27 349.526 299.27 349.535 299.279 349.526C302.95 353.591 306.406 357.833 309.132 362.582C315.613 373.858 317.421 387.045 318.526 400.082" stroke="#0E1823" stroke-opacity="0.4" stroke-width="0.25" stroke-miterlimit="10" stroke-linecap="round" stroke-linejoin="round"/>
<path d="M328.472 340.076C331.272 360.231 331.403 380.741 328.875 400.924" stroke="#0E1823" stroke-opacity="0.4" stroke-width="0.25" stroke-miterlimit="10" stroke-linecap="round" stroke-linejoin="round"/>
<path d="M336.845 401.571C338.756 392.327 341.294 383.205 343.879 374.12C346.586 364.567 349.358 354.977 353.572 345.986C356.391 339.973 359.884 334.204 364.23 329.212" stroke="#0E1823" stroke-opacity="0.4" stroke-width="0.25" stroke-miterlimit="10" stroke-linecap="round" stroke-linejoin="round"/>
<path d="M349.976 402.639C351.587 394.482 353.563 386.371 357.281 378.953C360.465 372.612 365.129 366.778 370.992 362.91" stroke="#0E1823" stroke-opacity="0.4" stroke-width="0.25" stroke-miterlimit="10" stroke-linecap="round" stroke-linejoin="round"/>
<path d="M362.601 403.66C366.619 397.188 370.936 390.904 376.134 385.341C381.06 380.078 386.886 375.46 393.367 372.398" stroke="#0E1823" stroke-opacity="0.4" stroke-width="0.25" stroke-miterlimit="10" stroke-linecap="round" stroke-linejoin="round"/>
<path d="M109.078 388.899C113.906 381.004 113.647 369.723 106.995 363.29C103.908 360.304 99.5975 358.333 97.8055 354.43C95.3935 349.178 98.9035 343.986 97.9315 338.728C97.1615 334.564 95.2085 330.101 91.4795 327.825C88.8435 326.216 85.6835 325.68 82.9535 324.236C77.9325 321.578 76.9005 317.034 74.6995 312.335C72.5135 307.668 70.2095 302.972 65.5905 300.248C60.7485 297.392 53.5865 297.975 50.5195 302.687C47.5125 307.306 49.4245 313.415 51.4735 318.532C53.5225 323.649 55.5875 329.653 52.8015 334.409C51.0595 337.383 47.7065 339.202 46.1835 342.293C44.2775 346.162 45.7985 350.879 48.1485 354.495C51.0915 359.024 56.5635 363.66 56.3145 369.504C56.2215 371.681 55.5925 373.796 55.2605 375.949C54.1305 383.286 56.6965 391.099 61.9575 396.337C71.1745 405.515 86.6055 405.174 97.3975 399.476C102.094 396.994 106.288 393.461 109.078 388.899Z" fill="#DFFF57" fill-opacity="0.4"/>
<path d="M91.3551 401.957L91.3542 401.953C83.5342 365.636 71.9342 330.968 56.1602 298.862" stroke="#0E1823" stroke-opacity="0.4" stroke-width="0.25" stroke-miterlimit="10" stroke-linecap="round" stroke-linejoin="round"/>
<path d="M69.1769 303.183C66.9849 305.976 64.5069 308.496 61.7529 310.746" stroke="#0E1823" stroke-opacity="0.4" stroke-width="0.25" stroke-miterlimit="10" stroke-linecap="round" stroke-linejoin="round"/>
<path d="M71.6676 306.508C69.2396 309.622 66.5646 312.443 63.6416 314.985" stroke="#0E1823" stroke-opacity="0.4" stroke-width="0.25" stroke-miterlimit="10" stroke-linecap="round" stroke-linejoin="round"/>
<path d="M73.9854 340.972C78.6904 336.647 82.5024 331.443 85.3204 325.278" stroke="#0E1823" stroke-opacity="0.4" stroke-width="0.25" stroke-miterlimit="10" stroke-linecap="round" stroke-linejoin="round"/>
<path d="M75.5615 345.411C81.0215 340.249 85.5635 334.031 89.1385 326.674" stroke="#0E1823" stroke-opacity="0.4" stroke-width="0.25" stroke-miterlimit="10" stroke-linecap="round" stroke-linejoin="round"/>
<path d="M85.0215 375.951C91.1745 370.902 95.9735 364.524 99.2295 356.662" stroke="#0E1823" stroke-opacity="0.4" stroke-width="0.25" stroke-miterlimit="10" stroke-linecap="round" stroke-linejoin="round"/>
<path d="M86.2959 380.721C92.9019 375.114 98.2969 368.11 102.396 359.584" stroke="#0E1823" stroke-opacity="0.4" stroke-width="0.25" stroke-miterlimit="10" stroke-linecap="round" stroke-linejoin="round"/>
<path d="M51.9424 319.733C56.9414 321.892 62.0584 323.143 67.2774 323.561" stroke="#0E1823" stroke-opacity="0.4" stroke-width="0.25" stroke-miterlimit="10" stroke-linecap="round" stroke-linejoin="round"/>
<path d="M69.0791 328.02C63.8741 327.569 58.6951 326.44 53.5381 324.601" stroke="#0E1823" stroke-opacity="0.4" stroke-width="0.25" stroke-miterlimit="10" stroke-linecap="round" stroke-linejoin="round"/>
<path d="M45.5752 348.512C56.4072 354.395 67.4982 356.361 78.7762 354.974" stroke="#0E1823" stroke-opacity="0.4" stroke-width="0.25" stroke-miterlimit="10" stroke-linecap="round" stroke-linejoin="round"/>
<path d="M48.5068 355.033C59.1688 359.063 69.7308 360.501 80.2328 359.545" stroke="#0E1823" stroke-opacity="0.4" stroke-width="0.25" stroke-miterlimit="10" stroke-linecap="round" stroke-linejoin="round"/>
<path d="M55.0576 381.113C65.7906 386.798 76.7806 388.65 87.9496 387.22" stroke="#0E1823" stroke-opacity="0.4" stroke-width="0.25" stroke-miterlimit="10" stroke-linecap="round" stroke-linejoin="round"/>
<path d="M56.1875 386.849C67.2435 391.228 78.1915 392.812 89.0695 391.836" stroke="#0E1823" stroke-opacity="0.4" stroke-width="0.25" stroke-miterlimit="10" stroke-linecap="round" stroke-linejoin="round"/>
<path d="M1.9341 381.824C2.7841 379.907 4.9321 378.917 6.9841 378.486C10.8081 377.683 14.9101 378.28 18.3461 380.14C16.4841 377.821 17.2151 373.905 19.7881 372.415C21.7421 371.283 24.3771 371.771 26.0091 373.282C23.5731 369.892 20.8571 366.669 19.1891 362.854C17.2411 358.398 17.0781 352.661 20.4611 349.168C24.3811 345.121 31.5271 345.975 35.7631 349.689C40.0001 353.402 41.8931 359.1 42.9731 364.63C43.0921 360.913 43.6381 356.486 46.9571 354.81C50.1711 353.187 54.2551 355.417 55.9251 358.607C57.5961 361.797 57.5061 365.584 57.3751 369.183C58.2061 364.77 61.2381 360.568 65.5661 359.367C69.8931 358.166 75.2061 360.851 75.9501 365.28C76.5341 368.754 74.4781 371.902 72.0231 374.603C74.2191 372.879 77.1031 371.978 79.9071 371.517C83.9601 370.85 88.4471 371.002 91.7281 373.472C95.4051 376.24 96.6651 381.535 95.2841 385.925C93.9031 390.315 90.2461 393.755 86.0311 395.604C81.8171 397.452 77.0911 397.853 72.4981 397.568L18.6891 404.372C10.8161 401.543 4.4501 394.823 2.0511 386.809C1.5661 385.179 1.2461 383.376 1.9341 381.824Z" fill="#FFB552"/>
<path d="M94.8326 377.467C90.5175 378.896 86.2916 380.569 82.3456 382.815C76.0366 386.389 70.3936 391.586 67.5186 398.198" stroke="#0E1823" stroke-opacity="0.4" stroke-width="0.25" stroke-miterlimit="10" stroke-linecap="round" stroke-linejoin="round"/>
<path d="M72.5643 360.477C72.5643 360.477 72.5643 360.484 72.5573 360.477C69.9313 363.66 67.4733 366.969 65.5833 370.635C61.0863 379.34 60.1713 389.325 59.7793 399.174" stroke="#0E1823" stroke-opacity="0.4" stroke-width="0.25" stroke-miterlimit="10" stroke-linecap="round" stroke-linejoin="round"/>
<path d="M50.2681 354.35C48.8411 369.613 49.4341 385.053 52.0181 400.157" stroke="#0E1823" stroke-opacity="0.4" stroke-width="0.25" stroke-miterlimit="10" stroke-linecap="round" stroke-linejoin="round"/>
<path d="M46.0422 400.912C44.2922 394.02 42.0742 387.24 39.8222 380.49C37.4632 373.392 35.0532 366.268 31.5782 359.644C29.2542 355.214 26.4302 350.99 22.9912 347.38" stroke="#0E1823" stroke-opacity="0.4" stroke-width="0.25" stroke-miterlimit="10" stroke-linecap="round" stroke-linejoin="round"/>
<path d="M36.1961 402.159C34.7081 396.074 32.9481 390.037 29.8991 384.58C27.2891 379.916 23.5821 375.682 19.0391 372.969" stroke="#0E1823" stroke-opacity="0.4" stroke-width="0.25" stroke-miterlimit="10" stroke-linecap="round" stroke-linejoin="round"/>
<path d="M26.7295 403.353C23.4875 398.618 20.0265 394.034 15.9265 390.023C12.0415 386.228 7.50151 382.95 2.52051 380.863" stroke="#0E1823" stroke-opacity="0.4" stroke-width="0.25" stroke-miterlimit="10" stroke-linecap="round" stroke-linejoin="round"/>
<path d="M392.712 406.38C392.712 415.041 327.345 424.106 199.137 424.106C70.929 424.106 0 413.459 0 404.798C0 396.137 68.148 387.992 196.356 387.992C324.564 387.992 392.712 397.719 392.712 406.38Z" fill="#CDD7FF" fill-opacity="0.4"/>
<path d="M335.657 410.076C335.657 411.334 339.096 412.355 343.338 412.355C347.58 412.355 351.02 411.335 351.02 410.076C351.02 408.817 347.581 407.797 343.338 407.797C339.096 407.797 335.657 408.817 335.657 410.076Z" fill="#A9B9ED" fill-opacity="0.4"/>
<path d="M88.1494 396.955C88.1494 398.213 91.5884 399.234 95.8304 399.234C100.072 399.234 103.512 398.214 103.512 396.955C103.512 395.696 100.073 394.676 95.8304 394.676C91.5874 394.676 88.1494 395.696 88.1494 396.955Z" fill="#A9B9ED" fill-opacity="0.4"/>
<path d="M192.082 396.955C196.325 396.955 199.764 395.935 199.764 394.676C199.764 393.417 196.325 392.397 192.082 392.397C187.84 392.397 184.4 393.417 184.4 394.676C184.4 395.935 187.84 396.955 192.082 396.955Z" fill="#A9B9ED" fill-opacity="0.4"/>
<path d="M20.0049 404.276C20.0049 405.051 22.1219 405.678 24.7329 405.678C27.3439 405.678 29.4609 405.05 29.4609 404.276C29.4609 403.502 27.3439 402.874 24.7329 402.874C22.1219 402.874 20.0049 403.501 20.0049 404.276Z" fill="#A9B9ED" fill-opacity="0.4"/>
<path d="M318.526 398.785C321.137 398.785 323.254 398.157 323.254 397.382C323.254 396.607 321.137 395.979 318.526 395.979C315.915 395.979 313.798 396.607 313.798 397.382C313.798 398.157 315.915 398.785 318.526 398.785Z" fill="#A9B9ED" fill-opacity="0.4"/>
<path d="M279.397 413.607C279.397 414.382 281.514 415.009 284.125 415.009C286.736 415.009 288.853 414.381 288.853 413.607C288.853 412.832 286.736 412.205 284.125 412.205C281.514 412.205 279.397 412.832 279.397 413.607Z" fill="#A9B9ED" fill-opacity="0.4"/>
<path d="M148.343 415.736C148.343 416.511 150.46 417.138 153.071 417.138C155.682 417.138 157.799 416.51 157.799 415.736C157.799 414.961 155.682 414.334 153.071 414.334C150.46 414.333 148.343 414.961 148.343 415.736Z" fill="#A9B9ED" fill-opacity="0.4"/>
<path d="M205.441 413.607C205.441 415.557 210.77 417.138 217.345 417.138C223.919 417.138 229.249 415.557 229.249 413.607C229.249 411.657 223.92 410.076 217.345 410.076C210.77 410.076 205.441 411.657 205.441 413.607Z" fill="#A9B9ED" fill-opacity="0.4"/>
<path d="M53.5615 407.807C53.5615 409.757 58.8905 411.338 65.4655 411.338C72.0395 411.338 77.3695 409.757 77.3695 407.807C77.3695 405.857 72.0405 404.276 65.4655 404.276C58.8905 404.276 53.5615 405.857 53.5615 407.807Z" fill="#A9B9ED" fill-opacity="0.4"/>
<path d="M136.712 265.164C136.712 265.164 186.775 315.861 239.032 271.735L226.22 135.129L148.021 136.471L136.712 265.164Z" fill="#3A4193" fill-opacity="0.4"/>
<path d="M251.055 322.674L212.14 322.665C217.887 347.607 223.842 373.323 229.443 398.77L285.073 398.782C287.488 398.805 288.215 395.416 285.974 394.596C272.518 389.675 260.62 386.457 251.578 385.072C252.248 364.425 252.077 343.626 251.055 322.674Z" fill="#FF9676" fill-opacity="0.4"/>
<path d="M249.175 398.774L269.087 398.779C270.872 396.003 272.899 393.364 275.174 390.904C268.316 388.726 262.036 387.071 256.548 385.964C253.658 389.978 251.192 394.278 249.175 398.774Z" fill="#912C2A" fill-opacity="0.4"/>
<path d="M287.077 402.683L229.287 402.67L229.444 398.77L287.233 398.783L287.077 402.683Z" fill="#0E1823" fill-opacity="0.4"/>
<path d="M179.812 110.345C179.798 187.505 192.478 269.152 205.713 348.29C229.893 352.397 250.04 348.679 265.56 335.985C233.926 247.027 252.376 161.77 205.242 102.851L179.812 110.345Z" fill="#D35D57" fill-opacity="0.4"/>
<path d="M204.639 341.85C228.49 345.245 248.762 342.264 263.051 328.62" stroke="#0E1823" stroke-opacity="0.4" stroke-width="0.25" stroke-miterlimit="10" stroke-linecap="round" stroke-linejoin="round"/>
<path d="M137.031 322.648L175.946 322.657C176.285 347.598 176.704 373.313 177.312 398.758L122.928 398.733C119.989 398.76 119.36 394.658 122.14 393.582C133.415 389.216 143.621 386.337 151.736 385.05C146.027 364.402 141.123 343.601 137.031 322.648Z" fill="#FF9676" fill-opacity="0.4"/>
<path d="M145.579 386.248C139.925 387.522 133.553 389.407 126.707 391.878C128.708 394.049 130.563 396.328 132.162 398.738L152.531 398.747C150.796 394.317 148.398 390.143 145.579 386.248Z" fill="#912C2A" fill-opacity="0.4"/>
<path d="M177.156 402.658L119.344 402.645L119.5 398.745L177.312 398.758L177.156 402.658Z" fill="#0E1823" fill-opacity="0.4"/>
<path d="M169.417 107.952C134.283 152.865 128.353 273.339 134.49 348.274C151.301 357.465 168.956 356.639 187.248 348.286C177.803 267.823 187.031 183.962 196.911 107.958L169.417 107.952Z" fill="#D35D57" fill-opacity="0.4"/>
<path d="M133.899 340.375C152.793 348.517 170.43 349.24 186.284 339.436" stroke="#0E1823" stroke-opacity="0.4" stroke-width="0.25" stroke-miterlimit="10" stroke-linecap="round" stroke-linejoin="round"/>
<path d="M161.854 46.3168L145.679 108.537C175.124 125.585 205.347 123.238 236.349 101.494L212.891 41.2828L161.854 46.3168Z" fill="#0E1823" fill-opacity="0.4"/>
<path d="M157.47 42.3179C147.164 138.683 122.852 185.993 126.045 254.53C135.916 268.783 151.942 274.021 171.748 273.719C167.149 179.584 163.462 87.2449 181.218 37.1099L157.47 42.3179Z" fill="#6265CE" fill-opacity="0.4"/>
<path d="M125.819 247.937C138.474 263.186 153.163 268.816 171.342 265.384" stroke="#0E1823" stroke-opacity="0.4" stroke-width="0.25" stroke-miterlimit="10" stroke-linecap="round" stroke-linejoin="round"/>
<path d="M194.804 35.5429C215.879 121.596 228.859 203.64 217.724 273.742C235.339 273.53 248.013 263.623 256.47 245.446C253.789 174.683 229.653 114.134 215.277 29.6409L194.804 35.5429Z" fill="#6265CE" fill-opacity="0.4"/>
<path d="M255.8 233.34C246.626 256.497 235.777 267.241 218.983 264.96" stroke="#0E1823" stroke-opacity="0.4" stroke-width="0.25" stroke-miterlimit="10" stroke-linecap="round" stroke-linejoin="round"/>
<path d="M232.688 234.561C232.618 236.294 231.165 237.699 229.442 237.699C227.719 237.699 226.379 236.293 226.448 234.56C226.518 232.827 227.971 231.422 229.694 231.422C231.417 231.422 232.758 232.828 232.688 234.561Z" stroke="#0E1823" stroke-opacity="0.4" stroke-width="0.25" stroke-miterlimit="10" stroke-linecap="round" stroke-linejoin="round"/>
<path d="M233.089 193.467C233.019 195.2 231.566 196.605 229.843 196.605C228.12 196.605 226.78 195.199 226.849 193.466C226.919 191.733 228.372 190.328 230.095 190.328C231.818 190.328 233.159 191.733 233.089 193.467Z" stroke="#0E1823" stroke-opacity="0.4" stroke-width="0.25" stroke-miterlimit="10" stroke-linecap="round" stroke-linejoin="round"/>
<path d="M228.439 157.586C228.369 159.319 226.916 160.724 225.193 160.724C223.47 160.724 222.13 159.318 222.199 157.585C222.269 155.852 223.722 154.447 225.445 154.447C227.168 154.447 228.508 155.852 228.439 157.586Z" stroke="#0E1823" stroke-opacity="0.4" stroke-width="0.25" stroke-miterlimit="10" stroke-linecap="round" stroke-linejoin="round"/>
<path d="M159.135 125.964C159.135 125.964 139.317 194.233 152.167 193.442C165.017 192.651 167.742 115.98 167.742 115.98" stroke="#0E1823" stroke-opacity="0.4" stroke-width="0.5" stroke-miterlimit="10"/>
<path d="M208.425 126.653C208.425 126.653 195.516 176.103 204.255 178.221C212.993 180.339 222.472 132.612 214.136 115.99" stroke="#0E1823" stroke-opacity="0.4" stroke-width="0.5" stroke-miterlimit="10"/>
<path d="M160.968 145.154C160.968 145.154 148.147 112.103 186.067 105.517C224.215 98.8909 220.213 136.057 220.213 136.057C199.688 144.022 179.945 147.023 160.968 145.154Z" fill="#CDD7FF" fill-opacity="0.4"/>
<path d="M163.75 117.215C167.041 122.401 174.455 129.464 189.856 127.04C202.759 125.017 208.647 116.934 211.337 110.024" stroke="#0E1823" stroke-opacity="0.4" stroke-width="0.25" stroke-miterlimit="10"/>
<path d="M193.561 126.65C193.478 128.703 191.758 130.366 189.717 130.366C187.677 130.366 186.089 128.701 186.172 126.649C186.254 124.596 187.975 122.933 190.016 122.933C192.056 122.933 193.644 124.597 193.561 126.65Z" fill="#0E1823" fill-opacity="0.4"/>
<path d="M216.171 122.938L207.858 127.964C207.858 127.964 204.187 127.816 202.43 127.759C200.346 127.69 199.551 127.414 199.277 128.679C199.003 129.943 201.127 130.532 203.299 131.342C203.299 131.342 200.94 132.716 197.888 134.141C195.421 135.292 187.849 137.504 187.54 139.039C187.231 140.574 198.288 137.745 198.288 137.745C198.288 137.745 186.537 140.833 186.399 142.189C186.261 143.544 199.636 140.205 199.636 140.205C199.636 140.205 187.365 143.738 187.177 146.089C186.989 148.44 200.786 142.266 200.786 142.266C200.786 142.266 190.113 147.748 190.682 149.318C191.252 150.888 201.155 145.116 210.021 141.407C218.888 137.698 223.072 136.134 223.072 136.134L216.171 122.938Z" fill="#FF9676" fill-opacity="0.4"/>
<path d="M216.474 29.3778L203.766 32.1648L209.694 51.5328L227.431 98.4908L206.98 110.368L215.506 145.275C285.053 127.901 285.12 106.573 228.41 33.5968C225.626 30.0168 221.013 28.3828 216.474 29.3778Z" fill="#6265CE" fill-opacity="0.4"/>
<path d="M216.688 104.731L206.979 110.369L215.505 145.276C219.095 144.379 222.489 143.471 225.71 142.547L216.688 104.731Z" fill="#3A4193" fill-opacity="0.4"/>
<path d="M209.694 51.5338L227.431 98.4918L206.979 110.369L215.505 145.276C225.735 143.019 231.793 141.089 239.254 138.458" stroke="#0E1823" stroke-opacity="0.4" stroke-width="0.25" stroke-miterlimit="10" stroke-linecap="round" stroke-linejoin="round"/>
<path d="M227.431 98.4919L233.913 95.2399" stroke="#0E1823" stroke-opacity="0.4" stroke-width="0.25" stroke-miterlimit="10" stroke-linecap="round" stroke-linejoin="round"/>
<path d="M227.757 96.8649C228.428 94.6399 229.755 92.5949 231.524 91.0629" stroke="#0E1823" stroke-opacity="0.4" stroke-width="0.25" stroke-miterlimit="10" stroke-linecap="round" stroke-linejoin="round"/>
<path d="M160.995 120.595L170.309 118.171C170.309 118.171 172.855 115.396 174.082 114.076C175.537 112.511 175.927 111.734 176.962 112.446C177.997 113.157 176.857 115.125 175.829 117.288C175.829 117.288 178.437 116.563 181.579 115.369C184.117 114.404 188.371 112.478 189.611 113.358C190.85 114.239 183.217 117.534 183.217 117.534C183.217 117.534 190.222 114.848 191.219 115.723C192.216 116.598 184.336 121.005 184.336 121.005C184.336 121.005 190.8 118.654 191.389 119.708C192.091 120.965 184.872 123.325 184.872 123.325C184.872 123.325 191.895 121.684 192.183 122.604C192.537 123.734 186.493 125.645 177.652 129.421C168.811 133.197 164.763 135.113 164.763 135.113L160.995 120.595Z" fill="#FF9676" fill-opacity="0.4"/>
<path d="M153.42 113.795L165.839 59.4558L165.473 40.5618L159.041 41.9728C153.996 43.0788 149.665 46.4788 147.314 51.1468C93.3043 158.376 115.373 175.184 175.108 143.411L171.401 108.784L153.42 113.795Z" fill="#6265CE" fill-opacity="0.4"/>
<path d="M171.402 108.785L163.368 110.973L167.019 147.54C169.614 146.277 172.311 144.9 175.109 143.412L171.402 108.785Z" fill="#3A4193" fill-opacity="0.4"/>
<path d="M137.228 157.565C149.361 156.01 163.58 149.543 175.109 143.411L171.402 108.784L153.42 113.795L159.153 93.9478L158.314 92.4918C156.775 89.8218 156.486 86.5668 157.522 83.5638L165.839 59.4558" stroke="#0E1823" stroke-opacity="0.4" stroke-width="0.25" stroke-miterlimit="10" stroke-linecap="round" stroke-linejoin="round"/>
<path d="M153.42 113.795L144.33 116.561" stroke="#0E1823" stroke-opacity="0.4" stroke-width="0.25" stroke-miterlimit="10" stroke-linecap="round" stroke-linejoin="round"/>
<path d="M152.195 112.951C151.258 111.298 149.546 110.132 147.652 109.856" stroke="#0E1823" stroke-opacity="0.4" stroke-width="0.25" stroke-miterlimit="10" stroke-linecap="round" stroke-linejoin="round"/>
<path d="M172.47 43.7548C172.47 43.7548 162.625 33.5348 164.459 24.7068C166.293 15.8788 179.067 2.71584 185.624 1.03084C192.181 -0.654162 198.03 -0.96816 201.514 5.57484C204.998 12.1178 208.821 20.0548 209.312 25.0148C209.803 29.9748 200.088 41.0828 200.088 41.0828L172.47 43.7548Z" fill="#FFB552"/>
<path d="M195.146 1.26878C191.402 0.400785 186.703 2.10178 184.019 3.31078C183.014 2.43878 181.796 2.13579 180.236 2.58879C173.751 4.47179 169.943 25.6338 173.622 32.2478C175.869 36.2878 179.076 30.2368 181.568 29.0818L183.755 42.6658L196.618 43.1978C196.618 43.1978 204.363 32.8498 205.868 27.2948C207.372 21.7398 200.714 2.55978 195.146 1.26878Z" fill="#0E1823" fill-opacity="0.4"/>
<path d="M176.608 38.5178L178.556 27.5048C178.556 27.5048 172.079 27.6638 171.365 26.3298C169.807 23.4208 179.995 5.56982 179.995 5.56982L191.869 5.57282L199.36 38.5238L176.608 38.5178Z" fill="#FF9676" fill-opacity="0.4"/>
<path d="M184.217 11.0118C184.208 11.2438 184.013 11.4318 183.782 11.4318C183.551 11.4318 183.372 11.2438 183.381 11.0108C183.39 10.7788 183.585 10.5908 183.816 10.5908C184.047 10.5918 184.226 10.7798 184.217 11.0118Z" fill="#0E1823" fill-opacity="0.4"/>
<path d="M178.811 11.0108C178.802 11.2428 178.607 11.4308 178.376 11.4308C178.145 11.4308 177.966 11.2428 177.975 11.0108C177.984 10.7788 178.179 10.5908 178.41 10.5908C178.641 10.5908 178.82 10.7788 178.811 11.0108Z" fill="#0E1823" fill-opacity="0.4"/>
<path d="M180.283 11.1099C179.684 11.8119 179.014 12.4549 178.288 13.0229C178.67 13.2529 179.052 13.4829 179.434 13.7129C178.997 14.0079 178.56 14.3039 178.123 14.5989C179.388 15.2139 181.384 15.5219 183.037 14.3479" stroke="#0E1823" stroke-opacity="0.4" stroke-width="0.25" stroke-miterlimit="10" stroke-linecap="round" stroke-linejoin="round"/>
<path d="M195.917 5.33688L178.891 5.33289L176.747 9.68089C179.51 9.90289 181.721 7.77089 182.961 6.19989C183.686 7.32289 185.346 9.12789 187.595 10.7219C185.287 16.3389 180.008 31.3979 186.386 38.5199L199.697 38.5229L195.917 5.33688Z" fill="#0E1823" fill-opacity="0.4"/>
<path d="M219.832 29.1129L217.69 29.2159C217.354 29.2609 216.81 29.3329 216.474 29.3779L205.865 31.7049C206.745 30.0269 207.847 27.5059 207.5 25.9399C206.944 23.4269 202.429 0.44686 193.077 0.40986C190.119 0.39786 187.668 1.92586 187.668 1.92586C187.668 1.92586 195.793 0.70786 197.104 7.35486C198.217 12.9999 186.759 31.2769 183.28 36.6589L165.474 40.5639L161.514 41.4329L157.47 42.3199C153.497 43.1909 148.784 46.9399 147.003 50.6499C146.319 52.0749 145.644 53.4769 144.974 54.8679C143.748 55.8429 139.141 59.6789 138.474 62.8279C138.019 64.9759 136.122 72.3179 136.122 72.3179C136.122 72.3179 131.237 73.6369 129.346 81.4429C128.517 84.8669 127.395 95.0199 127.395 95.0199C127.475 94.9779 201.644 74.9989 220.116 29.5279C219.996 29.3499 219.953 29.2889 219.832 29.1129Z" fill="#FFB552"/>
<path d="M241.865 51.5078C238.984 44.8608 233.344 39.9468 228.408 33.5968C225.625 30.0168 221.013 28.3818 216.473 29.3778L176.611 38.1198L176.833 39.4898C176.833 39.4898 196.555 55.9608 241.865 51.5078Z" fill="#FFB552"/>
<path d="M197.582 40.5698C197.582 40.5698 191.758 98.6598 198.674 118.779C198.674 118.779 209.249 117.138 215.017 101.796C220.785 86.4538 214.368 54.7068 209.85 42.8118L197.582 40.5698Z" fill="#FFB552"/>
<path d="M203.724 92.4998C209.193 84.5468 210.929 74.2018 208.305 65.1958" stroke="#0E1823" stroke-opacity="0.4" stroke-width="0.25" stroke-miterlimit="10" stroke-linecap="round" stroke-linejoin="round"/>
<path d="M204.383 81.7018C204.737 78.3128 204.607 74.8928 203.998 71.5798" stroke="#0E1823" stroke-opacity="0.4" stroke-width="0.25" stroke-miterlimit="10" stroke-linecap="round" stroke-linejoin="round"/>
<path d="M147.806 55.5538C147.806 55.5538 169.691 62.8998 182.429 55.5618C195.167 48.2238 203.28 37.1158 203.28 37.1158" stroke="#0E1823" stroke-opacity="0.4" stroke-width="0.25" stroke-miterlimit="10" stroke-linecap="round" stroke-linejoin="round"/>
<path d="M186.486 58.2078C175.256 68.7948 159.356 74.1168 144.457 72.2758" stroke="#0E1823" stroke-opacity="0.4" stroke-width="0.25" stroke-miterlimit="10" stroke-linecap="round" stroke-linejoin="round"/>
<path d="M196.226 60.3138C206.48 51.7598 215.24 41.5318 220.117 29.5258" stroke="#0E1823" stroke-opacity="0.4" stroke-width="0.25" stroke-miterlimit="10" stroke-linecap="round" stroke-linejoin="round"/>
<path d="M202.395 13.7528C202.395 13.7528 197.137 37.6418 169.229 39.7388" stroke="#0E1823" stroke-opacity="0.4" stroke-width="0.25" stroke-miterlimit="10" stroke-linecap="round" stroke-linejoin="round"/>
</svg>
